<svg width="324" height="127" viewBox="0 0 324 127" fill="none" xmlns="http://www.w3.org/2000/svg">
<path d="M93.1903 6.39953H84.2303V29.5195H78.6703V6.39953H69.7103V1.15953H93.1903V6.39953ZM105.785 9.75953V15.1195C105.185 14.9995 104.665 14.9595 104.185 14.9595C101.465 14.9595 99.1053 16.2795 99.1053 20.5195V29.5195H93.7853V9.83953H98.9453V12.7595C100.145 10.1595 102.865 9.67953 104.545 9.67953C104.985 9.67953 105.385 9.71953 105.785 9.75953ZM108.445 24.1595C108.445 20.6395 111.045 18.6795 114.325 18.1995L119.165 17.4795C120.285 17.3195 120.645 16.7595 120.645 16.0795C120.645 14.6795 119.565 13.5195 117.325 13.5195C115.005 13.5195 113.725 14.9995 113.565 16.7195L108.845 15.7195C109.165 12.6395 112.005 9.23953 117.285 9.23953C123.525 9.23953 125.845 12.7595 125.845 16.7195V26.3995C125.845 27.4395 125.965 28.8395 126.085 29.5195H121.205C121.085 28.9995 121.005 27.9195 121.005 27.1595C120.005 28.7195 118.125 30.0795 115.205 30.0795C111.005 30.0795 108.445 27.2395 108.445 24.1595ZM116.325 26.1195C118.565 26.1195 120.645 25.0395 120.645 21.5595V20.6795L116.205 21.3595C114.845 21.5595 113.765 22.3195 113.765 23.8395C113.765 24.9995 114.605 26.1195 116.325 26.1195ZM149.416 9.83953L141.776 29.5195H136.456L128.416 9.83953H134.256L139.136 23.0395L143.816 9.83953H149.416ZM155.947 17.4395H164.747C164.667 15.4795 163.387 13.5595 160.347 13.5595C157.587 13.5595 156.067 15.6395 155.947 17.4395ZM165.267 22.5595L169.707 23.8795C168.707 27.2795 165.587 30.1195 160.747 30.1195C155.347 30.1195 150.587 26.2395 150.587 19.5995C150.587 13.3195 155.227 9.23953 160.267 9.23953C166.347 9.23953 169.987 13.1195 169.987 19.4395C169.987 20.1995 169.907 20.9995 169.907 21.0795H155.827C155.947 23.6795 158.147 25.5595 160.787 25.5595C163.267 25.5595 164.627 24.3195 165.267 22.5595ZM179.496 29.5195H174.176V0.55953H179.496V29.5195ZM229.461 73.2795C232.061 73.2795 234.461 71.3995 234.461 67.6795C234.461 63.9595 232.061 62.0795 229.461 62.0795C226.861 62.0795 224.461 63.9595 224.461 67.6795C224.461 71.3595 226.861 73.2795 229.461 73.2795ZM229.461 57.2395C235.341 57.2395 239.781 61.5995 239.781 67.6795C239.781 73.7195 235.341 78.1195 229.461 78.1195C223.581 78.1195 219.141 73.7195 219.141 67.6795C219.141 61.5995 223.581 57.2395 229.461 57.2395ZM253.101 52.9595C251.901 52.9595 250.341 53.4795 250.341 55.6795V57.8395H254.781V62.3995H250.341V77.5195H244.981V62.3995H241.701V57.8395H244.981V55.5995C244.981 51.1595 247.781 48.2795 252.141 48.2795C253.261 48.2795 254.341 48.4795 254.781 48.6795V53.1595C254.501 53.0795 253.981 52.9595 253.101 52.9595ZM274.681 51.9595V57.8395H278.641V62.5595H274.681V70.7995C274.681 72.5195 275.481 73.0795 277.001 73.0795C277.641 73.0795 278.361 72.9995 278.641 72.9195V77.3195C278.161 77.5195 277.201 77.7995 275.641 77.7995C271.801 77.7995 269.401 75.5195 269.401 71.7195V62.5595H265.841V57.8395H266.841C268.921 57.8395 269.881 56.4795 269.881 54.7195V51.9595H274.681ZM287.504 65.9595V77.5195H282.184V48.5595H287.504V59.4795C288.784 57.9595 290.944 57.3195 292.824 57.3195C297.824 57.3195 300.144 60.7995 300.144 65.1195V77.5195H294.824V66.0395C294.824 63.8395 293.744 62.1195 291.184 62.1195C288.944 62.1195 287.624 63.7995 287.504 65.9595ZM309.423 65.4395H318.223C318.143 63.4795 316.863 61.5595 313.823 61.5595C311.063 61.5595 309.543 63.6395 309.423 65.4395ZM318.743 70.5595L323.183 71.8795C322.183 75.2795 319.063 78.1195 314.223 78.1195C308.823 78.1195 304.063 74.2395 304.063 67.5995C304.063 61.3195 308.703 57.2395 313.743 57.2395C319.823 57.2395 323.463 61.1195 323.463 67.4395C323.463 68.1995 323.383 68.9995 323.383 69.0795H309.303C309.423 71.6795 311.623 73.5595 314.263 73.5595C316.743 73.5595 318.103 72.3195 318.743 70.5595ZM122.309 105.84H127.909L132.149 118.52L135.789 105.84H141.069L134.909 125.52H129.589L124.989 112.08L120.469 125.52H115.069L108.789 105.84H114.389L118.029 118.48L122.309 105.84ZM152.723 121.28C155.323 121.28 157.723 119.4 157.723 115.68C157.723 111.96 155.323 110.08 152.723 110.08C150.123 110.08 147.723 111.96 147.723 115.68C147.723 119.36 150.123 121.28 152.723 121.28ZM152.723 105.24C158.603 105.24 163.043 109.6 163.043 115.68C163.043 121.72 158.603 126.12 152.723 126.12C146.843 126.12 142.403 121.72 142.403 115.68C142.403 109.6 146.843 105.24 152.723 105.24ZM179.242 105.76V111.12C178.642 111 178.122 110.96 177.642 110.96C174.922 110.96 172.562 112.28 172.562 116.52V125.52H167.242V105.84H172.402V108.76C173.602 106.16 176.322 105.68 178.002 105.68C178.442 105.68 178.842 105.72 179.242 105.76ZM188.305 125.52H182.985V96.5595H188.305V125.52ZM212.76 96.5595V121.96C212.76 123.28 212.84 124.72 212.92 125.52H207.84C207.76 125.12 207.64 124.16 207.64 123.24C206.76 124.8 204.76 126 202.12 126C196.52 126 192.52 121.6 192.52 115.64C192.52 109.88 196.4 105.36 201.96 105.36C205.36 105.36 206.96 106.76 207.52 107.8V96.5595H212.76ZM197.88 115.64C197.88 119.16 199.96 121.24 202.76 121.24C205.48 121.24 207.6 119.16 207.6 115.6C207.6 112.08 205.48 110.12 202.76 110.12C200.04 110.12 197.88 112.12 197.88 115.64Z" fill="black"/>
<path d="M201.634 3.95953V9.83953H205.594V14.5595H201.634V22.7995C201.634 24.5195 202.434 25.0795 203.954 25.0795C204.594 25.0795 205.314 24.9995 205.594 24.9195V29.3195C205.114 29.5195 204.154 29.7995 202.594 29.7995C198.754 29.7995 196.354 27.5195 196.354 23.7195V14.5595H192.794V9.83953H193.794C195.874 9.83953 196.834 8.47953 196.834 6.71953V3.95953H201.634ZM218.758 25.2795C221.358 25.2795 223.758 23.3995 223.758 19.6795C223.758 15.9595 221.358 14.0795 218.758 14.0795C216.158 14.0795 213.758 15.9595 213.758 19.6795C213.758 23.3595 216.158 25.2795 218.758 25.2795ZM218.758 9.23953C224.638 9.23953 229.078 13.5995 229.078 19.6795C229.078 25.7195 224.638 30.1195 218.758 30.1195C212.878 30.1195 208.438 25.7195 208.438 19.6795C208.438 13.5995 212.878 9.23953 218.758 9.23953ZM238.598 37.1195H233.278V9.83953H238.438V12.2395C239.318 10.7195 241.518 9.39953 244.478 9.39953C250.238 9.39953 253.558 13.7995 253.558 19.6395C253.558 25.5995 249.838 29.9995 244.278 29.9995C241.558 29.9995 239.558 28.9195 238.598 27.5995V37.1195ZM248.318 19.6795C248.318 16.1995 246.158 14.1595 243.438 14.1595C240.717 14.1595 238.518 16.1995 238.518 19.6795C238.518 23.1595 240.717 25.2395 243.438 25.2395C246.158 25.2395 248.318 23.1995 248.318 19.6795ZM20.7875 48.5595V73.9595C20.7875 75.2795 20.8675 76.7195 20.9475 77.5195H15.8675C15.7875 77.1195 15.6675 76.1595 15.6675 75.2395C14.7875 76.7995 12.7875 77.9995 10.1475 77.9995C4.5475 77.9995 0.5475 73.5995 0.5475 67.6395C0.5475 61.8795 4.4275 57.3595 9.9875 57.3595C13.3875 57.3595 14.9875 58.7595 15.5475 59.7995V48.5595H20.7875ZM5.9075 67.6395C5.9075 71.1595 7.9875 73.2395 10.7875 73.2395C13.5075 73.2395 15.6275 71.1595 15.6275 67.5995C15.6275 64.0795 13.5075 62.1195 10.7875 62.1195C8.0675 62.1195 5.9075 64.1195 5.9075 67.6395ZM30.4388 65.4395H39.2388C39.1588 63.4795 37.8788 61.5595 34.8388 61.5595C32.0788 61.5595 30.5588 63.6395 30.4388 65.4395ZM39.7588 70.5595L44.1988 71.8795C43.1988 75.2795 40.0788 78.1195 35.2388 78.1195C29.8388 78.1195 25.0788 74.2395 25.0788 67.5995C25.0788 61.3195 29.7188 57.2395 34.7588 57.2395C40.8388 57.2395 44.4788 61.1195 44.4788 67.4395C44.4788 68.1995 44.3988 68.9995 44.3988 69.0795H30.3188C30.4388 71.6795 32.6388 73.5595 35.2788 73.5595C37.7588 73.5595 39.1188 72.3195 39.7588 70.5595ZM46.9881 72.0395L51.5481 71.0395C51.6681 72.5995 52.8281 74.0395 55.1481 74.0395C56.9081 74.0395 57.7481 73.1195 57.7481 72.0795C57.7481 71.1995 57.1481 70.4795 55.6281 70.1595L53.0281 69.5595C49.2281 68.7195 47.5081 66.4395 47.5081 63.6795C47.5081 60.1595 50.6281 57.2395 54.8681 57.2395C60.4681 57.2395 62.3481 60.7995 62.5881 62.9195L58.1481 63.9195C57.9881 62.7595 57.1481 61.2795 54.9081 61.2795C53.5081 61.2795 52.3881 62.1195 52.3881 63.2395C52.3881 64.1995 53.1081 64.7995 54.1881 64.9995L56.9881 65.5995C60.8681 66.3995 62.8281 68.7595 62.8281 71.6395C62.8281 74.8395 60.3481 78.1195 55.1881 78.1195C49.2681 78.1195 47.2281 74.2795 46.9881 72.0395ZM73.6656 51.9595V57.8395H77.6256V62.5595H73.6656V70.7995C73.6656 72.5195 74.4656 73.0795 75.9856 73.0795C76.6256 73.0795 77.3456 72.9995 77.6256 72.9195V77.3195C77.1456 77.5195 76.1856 77.7995 74.6256 77.7995C70.7856 77.7995 68.3856 75.5195 68.3856 71.7195V62.5595H64.8256V57.8395H65.8256C67.9056 57.8395 68.8656 56.4795 68.8656 54.7195V51.9595H73.6656ZM87.4647 77.5195H82.1447V57.8395H87.4647V77.5195ZM81.5047 51.3995C81.5047 49.5595 82.9847 48.0795 84.7847 48.0795C86.6247 48.0795 88.0647 49.5595 88.0647 51.3995C88.0647 53.1595 86.6247 54.6395 84.7847 54.6395C82.9847 54.6395 81.5047 53.1595 81.5047 51.3995ZM98.4803 66.1995V77.5195H93.1603V57.8395H98.3203V60.2795C99.5203 58.2395 101.88 57.3195 104 57.3195C108.88 57.3195 111.12 60.7995 111.12 65.1195V77.5195H105.8V66.0395C105.8 63.8395 104.72 62.1195 102.16 62.1195C99.8403 62.1195 98.4803 63.9195 98.4803 66.1995ZM115.32 72.1595C115.32 68.6395 117.92 66.6795 121.2 66.1995L126.04 65.4795C127.16 65.3195 127.52 64.7595 127.52 64.0795C127.52 62.6795 126.44 61.5195 124.2 61.5195C121.88 61.5195 120.6 62.9995 120.44 64.7195L115.72 63.7195C116.04 60.6395 118.88 57.2395 124.16 57.2395C130.4 57.2395 132.72 60.7595 132.72 64.7195V74.3995C132.72 75.4395 132.84 76.8395 132.96 77.5195H128.08C127.96 76.9995 127.88 75.9195 127.88 75.1595C126.88 76.7195 125 78.0795 122.08 78.0795C117.88 78.0795 115.32 75.2395 115.32 72.1595ZM123.2 74.1195C125.44 74.1195 127.52 73.0395 127.52 69.5595V68.6795L123.08 69.3595C121.72 69.5595 120.64 70.3195 120.64 71.8395C120.64 72.9995 121.48 74.1195 123.2 74.1195ZM144.525 51.9595V57.8395H148.485V62.5595H144.525V70.7995C144.525 72.5195 145.325 73.0795 146.845 73.0795C147.485 73.0795 148.205 72.9995 148.485 72.9195V77.3195C148.005 77.5195 147.045 77.7995 145.485 77.7995C141.645 77.7995 139.245 75.5195 139.245 71.7195V62.5595H135.685V57.8395H136.685C138.765 57.8395 139.725 56.4795 139.725 54.7195V51.9595H144.525ZM158.324 77.5195H153.004V57.8395H158.324V77.5195ZM152.364 51.3995C152.364 49.5595 153.844 48.0795 155.644 48.0795C157.484 48.0795 158.924 49.5595 158.924 51.3995C158.924 53.1595 157.484 54.6395 155.644 54.6395C153.844 54.6395 152.364 53.1595 152.364 51.3995ZM172.86 73.2795C175.46 73.2795 177.86 71.3995 177.86 67.6795C177.86 63.9595 175.46 62.0795 172.86 62.0795C170.26 62.0795 167.86 63.9595 167.86 67.6795C167.86 71.3595 170.26 73.2795 172.86 73.2795ZM172.86 57.2395C178.74 57.2395 183.18 61.5995 183.18 67.6795C183.18 73.7195 178.74 78.1195 172.86 78.1195C166.98 78.1195 162.54 73.7195 162.54 67.6795C162.54 61.5995 166.98 57.2395 172.86 57.2395ZM192.699 66.1995V77.5195H187.379V57.8395H192.539V60.2795C193.739 58.2395 196.099 57.3195 198.219 57.3195C203.099 57.3195 205.339 60.7995 205.339 65.1195V77.5195H200.019V66.0395C200.019 63.8395 198.939 62.1195 196.379 62.1195C194.059 62.1195 192.699 63.9195 192.699 66.1995Z" fill="#F85E9F"/>
</svg>
